<svg xmlns="http://www.w3.org/2000/svg" xml:space="preserve" viewBox="0 0 34 36" fill="currentColor" stroke="currentColor">
  <path fill-rule="evenodd" d="m33.2 34.4-.2.3c-.4.5-1.1.5-1.4 0l-.4-1-.8-3.5-1-4.7-.3-.9c-.1-.2-.3-.4-.5-.4l-1.1.1c-2.5.5-5.1 1-7.6 1.8-1.7.5-2.1.2-2.4-1.4l-1.6-7.2c-.5-2.1-1.1-4.1-1.8-6.1-.2-.6-.3-.6-.9-.5l-3.4.8-4.7 1.1-.7.1c-.8.1-1.2-.1-1.5-.9l-.7-2.2L.3 2C.2 1.5.1 1.1.2.6.3.2.8 0 1.1.3c.5.3.8.8.9 1.3.4 1.2.9 2.4 1.2 3.7l.9 4.5c.1.6.3.7.8.6L8 9.6l5.1-1.3 1.6-.2c.4 0 .7.2.9.5.3.5.3 1.1.4 1.6l1.1 5.3 1.8 7.4.2.5c.1.4.3.5.7.5l.8-.1A76.2 76.2 0 0 0 29 22c1 0 1.5.3 1.8 1.2.9 2.9 1.7 5.9 2.4 8.8.2.9.3 1.6 0 2.4" clip-rule="evenodd"/>
</svg>