<svg xmlns="http://www.w3.org/2000/svg" xml:space="preserve" fill="currentColor" stroke="currentColor" viewBox="0 0 211.5 21.3">
  <path d="M57 0c-.4 0-.9.4-1.5 1l-.6.9c-1.4 2.1-1.7 4.6-3 6.8C51 10.2 49 14.5 48 16c-.5.9-.6.9-1.6.5-3-1.5-6.5-4.5-9.3-6.3-3.3-2.1-6.1-6-9.3-8-2.2-1.5-2.9-1.5-4.3 1-2 3.6-4.3 6.9-6.6 10.3l-1.1 1.4c-.3.3-.6.4-1 .2l-1.3-.7-6.3-4.2c-1.6-1.2-2.4-3-4-4l-1.6-.7C.7 5.2-.2 6.1.1 7v.4c.5 1.3 1.4 2 2.4 2.7 4 2.7 7.5 5.9 11.7 7.9 1.4.7 2.4.5 3.4-.5.8-.7 1.3-1.5 1.8-2.5 1.8-3 3.7-6 5.7-8.8l.8-1c.4-.4.7-.5 1.3-.2l.8.4c3.4 2.2 5.7 5.8 9 8 2.4 1.6 5.9 4.9 8.2 6.5.8.5 1.5 1 2.3 1.3.6.2 1.2.2 1.6-.4.7-.5 1.2-1.2 1.7-2 1.6-2.1 2.9-7.6 4.3-10l2.6-4.3c.6-.8.9-.8 1.6-.2a62.5 62.5 0 0 0 6 4c1.7 1 2.7 1.9 4.5 2.9a8 8 0 0 0 .2 0l.7.6a225 225 0 0 0 12.4 7.4c1.4.7 2.4.5 3.4-.5.8-.7 1.3-1.5 1.8-2.5 1.8-3 3.7-6 5.7-8.8l.8-1c.4-.4.7-.5 1.3-.2l.9.4 10 6.5 7 4.9c.8.5 1.5 1 2.3 1.3.6.2 1.2.2 1.6-.3.7-.6 1.2-1.3 1.7-2 1.6-2.2 3-4.6 4.4-7l2.5-4.3c.6-.8.9-.8 1.6-.1 1.9 1.3 3.4 1.8 5.5 3 1.6 1 2.3 1.8 4 2.7.8.8 2.3 1.3 3.2 1.7 4 2.6 6.8 5.1 11 7.4 1.4.7 2.4.5 3.4-.5.8-.7 1.3-1.5 1.8-2.5 1.8-3 3.7-6 5.7-8.8l.8-1c.4-.4.7-.5 1.3-.2l.9.4 10 6.5 7 4.9c.8.5 1.5 1 2.3 1.3.6.2 1.2.2 1.6-.3.7-.6 1.2-1.3 1.7-2 1.6-2.2 3-4.6 4.4-7l2.6-4.3c.6-.8.9-.8 1.6-.2a62.5 62.5 0 0 0 6 4c1.7 1 3.6 1.9 5.4 2.8.8.5 1.6.6 2.5.5.6-.1.9-.7.6-1.3-.4-.7-1-1.1-1.6-1.5l-10.7-6.8-3.3-1.7c-1.2-.6-1.7-.4-2.7.6l-.6.9a85.3 85.3 0 0 0-4 6.4l-3 4.6c-.5.9-.6.9-1.6.6-3-1.6-6-3.2-8.8-5l-9.7-6.3c-2.2-1.5-2.9-1.5-4.3 1-2 3.6-4.3 6.9-6.6 10.3l-1.1 1.4c-.3.3-.6.4-1 .2l-1.3-.7c-2.1-1.4-4.7-2.6-6.7-4-1.6-1.1-3-1.8-3.8-2.5l-.6-.4c-3.3-2.2-6.3-4.5-9.7-6.6L127 1.5c-1.2-.6-1.7-.4-2.7.6l-.6.9a85.3 85.3 0 0 0-4 6.4l-3 4.6c-.5.9-.6.9-1.6.6-3-1.6-6-3.2-8.8-5l-9.7-6.3c-2.2-1.5-2.9-1.5-4.3 1-2 3.7-4.3 6.9-6.6 10.3L84.6 16c-.3.3-.6.4-1 .2l-1.3-.7c-2.1-1.3-4.2-2.9-6.2-4.3l-2.9-1.6-1-.8L61.5 2 58.2.4 57.1.1z" />
</svg>