<svg xmlns="http://www.w3.org/2000/svg" xml:space="preserve" viewBox="0 0 864 864" fill="currentColor" stroke="currentColor">
  <path d="M645 197c0-3-1-7-3-10l-2-4c-1-7-5-13-12-17l-6-2c-1 0-2-1-1-2 1-7 1-13-4-19v-2l-2-6c-3-8-10-12-19-12l-8 1c-7 2-13 6-18 12-5 7-7 14-8 22v4-1c-1-1-3-2-4-1v5-1l-1-1c1-1 0-2-1-2-2-1-3 0-3 2v1l1 2 1 2c2 3 2 6 3 10v3c-2 3-3 6-1 9s4 4 8 4l2 1 2 2 12 15 11 14c2 1 4 3 7 3h1l4-2c1-2 2-2 3-2 7 0 13 0 19-2 6-1 11-4 15-9 3-4 5-11 4-17zm-87-32 1 2-1-2zm4-1v-1 2-1zm1 1zm54 6 1-1c6 1 11 3 14 9-7-2-13-2-20-1l5-7zm-48-6v-3a33 33 0 0 1 25-33c7-1 13 2 15 8h-4c-6-1-12 0-17 3-10 6-16 13-19 24v1zm63 48c-5 4-12 5-18 5h-4l1 1-8-1-1-1a328 328 0 0 0-27-26l-1-20c2-16 13-25 24-28s18 6 16 16c-1 6-4 11-8 16l-7 10-6 5-7 6c-1 1-2 3 0 5h4l11-10c8-6 16-9 26-7 6 2 10 6 12 12 1 7-2 13-7 17zM106 808l-2-1-3-7c-1-1 0-3 1-3 2-1 3 0 4 1l2 6c1 2 0 3-1 4h-1zm-6-26c-1 0-2-1-2-3l1-14c0-1 1-2 3-2l2 3-1 13c0 2-2 3-3 3zm106-13h-7l-2-3c0-2 1-3 3-2h13c1-1 2 0 3 2l-3 3h-7zm27-4-3-2 2-3 12-5c2-1 3-1 4 1l-1 3-13 5-1 1zm-52-4-1-1c-4-3-7-6-10-11-1-1 0-2 1-3h3l9 11v3l-2 1zm-73-12h-2l-1-3 7-13h4l1 3-7 12-2 1zm153-2-2-1v-3c2-4 4-8 4-12 1-2 2-2 3-2 2 0 3 1 2 3 0 5-2 9-5 13l-2 2zm-97-15c-1 0-2 0-3-2l-3-13c0-2 1-3 2-3 2 0 3 1 3 2l3 13c1 1 0 3-1 3h-1zm-36-9-2-1v-4l12-8h3c1 1 0 3-1 4l-10 8-2 1zm134-8-2-2-8-10v-3h3l10 11-1 3-2 1zm-105-10-3-2c0-1 0-3 2-3l3-1-1-3 2-14c0-1 1-2 3-2l2 3-2 14 6-2c1 0 2 0 3 2 0 1 0 2-2 3l-12 5h-1zm32-10-2-2c-1-2 0-3 2-3l7-2 6-1c2 0 3 1 3 3l-2 3h-6l-7 2h-1zm47-1h-1l-12-2c-2 0-3-1-3-3 0-1 1-2 3-2l14 2 2 3c-1 2-2 2-3 2zm-68-28h-1c-1-1-2-2-1-4l6-12c0-1 2-2 3-1 1 0 2 2 1 3l-6 12-2 2zm17-29-1-1-1-3 10-11h3v4l-9 10-2 1zm166-10h-3l-6-2c-1 0-2-1-2-3 1-1 2-2 4-1a26 26 0 0 0 12 0l3 2-2 3-6 1zm23-11h-2v-4c3-3 5-7 5-11l3-2c2 0 3 2 2 3-1 5-3 9-6 13l-2 1zm-48-1-2-1c-3-3-6-7-8-12l1-3c2-1 3 0 4 1l7 11v3l-2 1zm-117-2-2-1 1-3 11-8h4l-1 4a184 184 0 0 0-13 8zm29-19-3-1 1-3 13-7 3 1c1 2 0 3-1 4a273 273 0 0 0-13 6zm137-9-2-1a37 37 0 0 0-9-9c-1-1-2-2-1-3s3-2 4-1a52 52 0 0 1 10 10v4h-2zm-61-1c-2 0-3-1-3-2v-3l1-12 1-1-12 2c-2 1-3 0-3-1-1-2 0-3 1-3l14-3c2 0 3 1 3 2l-1 3c2 0 2 1 2 3a45 45 0 0 0-1 13l-2 2zm-46-4-2-2c-1-1 0-3 1-3a119 119 0 0 1 13-5c1-1 3 0 3 1 1 1 0 3-1 3l-8 3-5 2-1 1zm79-13h-1l-13-2-2-3c0-1 1-2 3-2l14 2 2 3-3 2zm-24-15h-2v-4l9-11 4 1v3l-9 10-2 1zm25-23-3-1 1-3 12-7c1-1 3-1 3 1 1 1 1 2-1 3a145 145 0 0 0-12 7zm30-15-3-2 1-3 13-5c2-1 3 0 4 1s0 3-2 3l-12 5-1 1zm31-13-2-2c-1-1 0-3 1-3l5-2 8-3c1-1 2 0 3 1l-1 3-8 4-5 2h-1zm31-14-2-1c-1-1 0-3 1-3l12-7c1-1 2 0 3 1s0 2-1 3c-3 3-8 5-12 7h-1zm28-18-2-1 1-3c3-3 7-6 9-10h4v4l-10 9-2 1zm22-26h-1c-2-1-2-2-1-4l5-12c0-1 2-2 3-1 2 0 2 2 2 3l-6 13-2 1zm-29-21-14-2-2-2c0-2 2-3 3-3l13 1 3 3c0 1-1 3-3 3zm20-1c-1 0-2-1-2-3l2-2 10-2h3c2-1 3 0 3 2 1 1 0 2-2 3h-3l-11 2c1 0 0 0 0 0zm-53-5h-1l-13-6-1-4 4-1 12 6c1 0 2 2 1 3l-2 2zm86-2-2-2c0-1 0-3 2-3l13-5 3 2c0 1 0 3-2 3l-13 5h-1zm-15-3c-1 0-2-1-2-3v-1l-2-12 2-3c2 0 3 1 3 2l2 13v1c0 2-2 3-3 3zm47-10-2-1c-1-1 0-3 1-3l12-7 3 1c1 1 1 3-1 4a207 207 0 0 1-13 6zm-146-3-2-1-3-3-6-9 1-3c2-1 3 0 4 1l5 8 2 2v4l-1 1zm175-14-2-1v-3l7-5 4-4c1-1 3 0 4 1s0 2-1 3l-4 4-7 5h-1zm-85-5-2-1-9-10v-4h3l10 11c1 1 0 2-1 3l-1 1zm-101-11-1-1c-1 0-2-2-1-3a21 21 0 0 1 10-11c1-1 2-1 3 1 1 1 0 2-1 3l-6 6-2 3-2 2zm212-6-2-1v-3l9-10c1-1 2-2 3-1s2 3 1 4l-10 10-1 1zm-137-4h-1l-13-4-2-3c0-2 2-3 3-2l14 4c1 1 2 2 1 4l-2 1zm-47-6c-1 0-2-1-2-3-1-1 0-2 2-2l14-1c1 0 2 1 2 3l-2 2-14 1zm204-17h-1c-2-1-2-3-1-4l5-12c1-1 2-2 4-1l1 3-6 13-2 1zm11-32h-1c-1 0-2-1-2-3l1-11v-2c0-2 1-3 2-3 2 0 3 1 3 3v2l-1 12-2 2zm-3-34-2-1-5-13 1-3c2-1 3 0 4 1l5 13-2 3h-1zm-16-29-2-1-5-4c-1-1-2-2-1-3 1-2 3-2 4-1l5 5v4h-1z" class="st0"/>
  <path d="M562 166c2 0 2-3 0-3-3 0-3 3 0 3z" class="st0"/>
</svg>
