<svg xmlns="http://www.w3.org/2000/svg" xml:space="preserve" viewBox="0 0 428 393" fill="currentColor" stroke="currentColor">
  <path d="m176 387-10-3c-6-4-11-10-11-18-1-9 3-18 8-25 9-12 20-21 33-28 15-7 31-12 48-15l81-18c12-3 23-6 33-13 6-4 10-8 14-13l1-1c9-11 4-23-5-28-6-4-12-5-18-6l-23-1h-67l-9 1-25 5-19 4c-10 3-17 9-22 18l-8 13-8 7c-2 2-5 1-7 0h-3c-3 2-6 2-8-1h-6c-3-2-5-5-6-9l-2-2c-2 0-4-2-5-5l-2-1c-4-1-6-4-7-7-2-7-2-14-1-21l4-15-1-1c-16-11-30-25-42-40l-16-20-3-1-37 11h-2l-2-1 1-2 2-2 35-10h2l-8-11h-2c-10-1-20 1-30 4-3 0-4 0-4-2-1-1 0-2 3-3 10-2 20-4 30-4-1-4-5-5-4-10H10l-1-2 1-2 3-1h34l2 1 3-13 10-50 4-16c2-4 4-5 8-2l14 14 10 9 2 1a2233 2233 0 0 0 40-1l11-15 12-13c3-4 5-3 7 2l18 44c0 2 1 2 3 1l2-2c18-15 35-30 55-43 10-6 21-11 33-13h20l7 3a152 152 0 0 1 77 87 81 81 0 0 1-5 70l-6 11c-1 1-1 4 2 5l8 7c8 7 16 12 22 20 10 15 13 31 10 48-3 14-10 25-22 34-14 11-31 17-48 21l-62 17-33 11c-10 3-19 8-27 14l-23 17c-5 4-11 7-18 9h-5l-2 1zm121-173-9-11c-9-11-16-21-21-34-5-15-4-30 3-44 3-7 8-13 12-20 7-9 16-15 28-17 7 0 13 1 18 6 2 2 2 3 1 5-2 1-3 0-4-2-3-3-7-4-12-4-9 0-16 4-23 10-6 7-11 14-15 22-7 14-9 28-4 42 6 16 16 30 28 42 4 3 8 5 13 5h24c3 0 5-1 7-3l19-20c4-4 8-9 11-15l4-7c6-13 10-27 9-42-1-11-4-21-9-32a152 152 0 0 0-76-77c-8-2-16-2-24 0-14 3-26 11-38 20l-43 35-2 2c-5 3-8 1-10-4l-10-23-8-21-3 3-11 14-8 11c-2 1-3 3-6 3H98l-2-1-24-24-1-1-1 3-4 15c-2 16-5 32-9 47l-3 13h2l15 4 3 3c1 0 2 2 1 3h-3l-2-1c-5-3-11-4-17-5l1 3 3 5 3 2 11 2 3 1 1 3-3 1-1-1-9-2v1l4 6c1 2 3 3 5 3l2-1c2 0 3 1 3 3l-2 2h-2l1 3 13 15a210 210 0 0 0 66 55c2 0 3 2 5 0 11-9 24-16 38-19h3l-3-5 1-3c1-1 2 0 3 1l4 6c1 2 1 4-2 5h-3c-9 2-17 6-25 10-15 7-24 19-29 35v11l2 5 1-8c0-3 2-4 3-4 2 0 2 2 2 5-1 3-1 5 1 8l4 1 2-3c-1-2 1-4 2-3l2 3c1 3 2 4 5 2l6-6 7-13c5-9 13-15 22-18 8-3 17-4 25-6l22-4c2 0 3-1 3-3l-1-10 1-3c2-1 3 0 3 2l1 4 1 9h39zm49 0 1 1h2c9 0 16 2 23 7 10 7 14 20 6 32l-2 3-14 14c-11 7-22 11-34 14l-84 18c-16 3-31 7-45 15-13 6-25 15-33 28-5 6-7 13-6 21 2 10 11 16 21 14 8-1 14-4 21-9l20-15c7-6 15-11 24-14l43-14 60-16c15-4 30-10 43-20l11-10c6-9 9-19 9-30 1-18-6-32-19-44l-15-12-8-7-24 24zm-208 36h1c1-11 6-21 13-29l-22-12c-2 5-3 10-3 16-1 5-1 10 1 14l1 4 1-7c1-2 2-3 3-2 2 0 2 1 2 3-1 3 0 7 1 10l2 3z"/>
  <path d="M148 95c-2 0-4 1-4 4 0 2 1 3 4 4 0 4-1 9-3 13l-5 2c-2 0-3-2-3-4l-1-5 4-17c0-2 1-4 4-4 2 0 3 2 3 4l1 3zm-59-4c-3 0-4 1-5 3 0 3 2 4 4 5l-4 13-4 3c-1 0-3-1-3-3l-1-6 3-15 2-4 4-2c2 1 3 2 3 4l1 2zm122 35-20-1c-9-1-19 0-28 2-1 0-3 0-3-2-1-2 0-3 2-3 9-2 17-3 26-2l22 1h1c2 1 3 1 3 3s-2 2-3 2zm-12-22h4c2 0 4 0 4 2s-2 2-3 3h-11c-10 1-20 4-29 8l-3 1-2-1 1-3 2-1c12-6 24-8 37-9zm-35 29 19 4 21 8 1 1c1 0 2 1 1 3l-3 1-1-1c-13-5-25-9-38-12-2 0-3 0-3-2s2-2 3-2zm-60-5-3 2c-1 1-2 2-3 1v-4l4-3c1-2 3-2 4 0l6 6-1 3h-3l-4-5z"/>
</svg>
