<svg xmlns="http://www.w3.org/2000/svg" xml:space="preserve" viewBox="0 0 11.98 21.9">
  <path d="M11.98 7.66c.01.26-.07.44-.15.62-.74 1.44-1.48 2.88-2.31 4.32l-1 1.88c-.07.27-.24.45-.32.72-.08.18-.26.18-.44.01-.1-.17-.19-.25-.28-.43-.48-.95-.95-1.9-1.51-2.85-.48-1.13-1.05-2.25-1.62-3.38-.2-.34-.38-.69-.48-1.13a1.5 1.5 0 0 1-.04-.88c.09-.09.08-.26.17-.35A81.62 81.62 0 0 1 6.06 2.4c.42-.63.75-1.26 1.08-1.98.08-.18.16-.27.25-.36.08-.09.17-.1.26 0 .1.08.19.25.28.33l1.4 2.07c.65 1.12 1.31 2.24 1.8 3.37.28.6.56 1.04.75 1.56 0 .09.1.26.1.26" />
  <path fill="currentColor" fill-rule="evenodd" stroke="currentColor" stroke-linecap="round" stroke-width=".31" d="M.96 16.21c0 .14.04.23.09.32.4.73.8 1.46 1.24 2.19l.53.95c.04.14.13.23.17.37.05.09.14.09.23 0 .05-.09.1-.13.14-.22.23-.5.46-1 .74-1.49.23-.58.51-1.17.8-1.75.08-.18.18-.36.23-.59a.77.77 0 0 0 0-.45c-.04-.04-.04-.14-.09-.18-.35-.64-.7-1.28-1.1-1.91a7.2 7.2 0 0 1-.58-1 .62.62 0 0 0-.13-.19c-.05-.05-.1-.05-.14 0l-.14.18-.69 1.07a15.8 15.8 0 0 0-.88 1.76c-.14.31-.28.54-.37.8 0 .05-.05.14-.05.14" class="st0" clip-rule="evenodd"/>
  <path fill="none" stroke="currentColor" stroke-linecap="round" stroke-width=".28" d="M.14 16.34c0 .19.06.32.12.44.55 1.02 1.1 2.03 1.72 3.04l.74 1.34c.06.18.19.31.25.5.06.13.19.13.31 0l.2-.3c.32-.7.64-1.38 1.03-2.07.32-.81.71-1.63 1.1-2.44.13-.25.26-.5.32-.81.07-.2.07-.38.01-.63-.06-.07-.06-.2-.12-.26a58.3 58.3 0 0 0-1.54-2.66 9.1 9.1 0 0 1-.8-1.4.87.87 0 0 0-.19-.25c-.06-.06-.12-.06-.19 0-.06.06-.12.19-.19.25l-.96 1.5c-.45.81-.9 1.62-1.23 2.44-.2.43-.38.75-.51 1.12 0 .07-.07.2-.07.2" class="st0" clip-rule="evenodd"/>
</svg>