<svg xmlns="http://www.w3.org/2000/svg" viewBox="0 0 308 345" fill="currentColor" stroke="currentColor">
  <path fill="none" stroke-width="2.9" d="M0 134c14-14 33-18 51-22 14-3 59-7 55-30l14 21c-13-7-35 3-47 10-15 9-25 25-40 34h3c-3 6-10 11-15 16 19-10 43-5 63-14l-1 2c10-2 18-12 26-18 6-4 20-10 18-22l19 24c-15-8-37 5-49 13-8 5-15 12-21 19-9 10-21 19-30 30 17-8 40-5 57-11 10-3 21-8 29-14 8-5 21-18 20-28l22 30c-16-10-43 9-55 19-16 14-26 34-48 38 14 5 31-2 46-3 19-2 42-6 54-23l-1 2c5-5 9-19 8-26 7 11 14 24 18 36-14-5-43 11-52 22h3c-20 8-24 30-36 45 11-2 23-3 34-7 11-3 37-15 41-28 1 3 12-22 12-26 1 4 6 13 4 17-1 4-24 21-14 25-16 25 20 54 14 80 6-12 14-23 19-35 3-10 2-21 2-32-1-12-3-21-11-30-9-9-10-13-13-25 24 30 77 19 109 12-11 0-22-3-31-9l2-1c-16-11-27-16-46-20-10-2-34-5-36 11l-17-35c31 26 85-16 110-32-18 3-34-5-51-5-14 1-65 12-62 32l-25-35c33 23 83-30 97-55-7 7-16 11-25 12l2-2c-16 2-31 3-46 9-9 4-34 19-31 32-7-9-15-18-21-28 18 5 42-19 53-30 14-15 20-35 32-51-19 17-59 17-68 45l-1-2c0-1-19 29-18 36-6-8-13-17-18-27 17 3 46-27 57-39s23-25 26-41c-14 19-37 17-55 28-14 9-34 27-32 46-12-19-20-41-31-60 9 20 17 41 28 60-18-16-46 1-61 14s-27 33-40 46z"/>
</svg>
