<svg xmlns="http://www.w3.org/2000/svg" xml:space="preserve" viewBox="0 0 85 25" fill="currentColor" stroke="currentColor">
  <path fill-rule="evenodd" d="M20 13c1-1.2 2-2.4 2.7-3.7s1-2.7.7-4.1L23 4c-.6-1.1-1.8-1.4-2.8-.6a5 5 0 0 0-1.7 2.4c-.6 1.6-.8 3.3-.7 5 .1.9.3 1.9.6 2.8.1.4.5.4.8.2l.8-.8m19.1-9.5a3 3 0 0 0-.7 1.6c-.2 1-.2 2-.1 3 .3 2.6 1.4 4.8 2.7 7l.2.2c.1.1.3.1.4 0l.5-.8c1-2.5 1.5-5.2 1-7.9-.2-1-.5-2-1-2.8-.5-1-2.1-1.2-3-.3m21.1.7-.3.4c-2.6 3.3-1.8 7.2.3 10.4.2.4.6.4.9 0a20.3 20.3 0 0 0 3.5-6.3c.3-1 .4-2 .3-3-.1-1.2-.8-1.9-1.9-2.3-1.1-.5-2-.1-2.8.8m19 12.9a19 19 0 0 1-3.3 3 11.5 11.5 0 0 1-13.9-.4c-1.1-.8-1.1-.9-2.3 0a16.4 16.4 0 0 1-5.5 2.6c-3.9 1-7.5.2-10.9-2l-.3-.2c-2-1.2-1.4-1.3-3.1.1a17.3 17.3 0 0 1-12.1 4.3c-4-.2-7.1-2-9.4-5.1-1.3-1.7-1-1.6-2.7-.7a23.7 23.7 0 0 1-8.5 2.8c-2 .2-3.9.3-5.8-.1L.2 21l-.2-.7c0-.3.2-.5.5-.5l1.4-.1 2.1.1c3.1.1 6.1-.5 8.9-1.9l2.8-1.5c.9-.5.9-.6.7-1.7l-.4-1.5c-.6-2.5-.5-5 0-7.5.2-.9.5-1.7 1-2.5 1.4-2.5 4.2-3.5 7-1.3 1.2.9 1.7 2.2 1.7 3.7s-.3 2.8-.9 4.1c-.9 1.8-1.9 3.4-3.3 4.8L20.1 16c-.2.3-.3.6-.1.9l.7 1.1a10 10 0 0 0 7.9 3.8c3.9.1 7.4-1.2 10.5-3.6.7-.5.7-.7.2-1.4-1.4-2-2.2-4.2-2.8-6.5a10.6 10.6 0 0 1 1.3-8.5C39-.3 41.5-.6 43.3 1c.9.8 1.5 1.9 2 3 .6 1.6.8 3.2.7 4.8-.1 2.6-.9 5-2.4 7.1-.7 1-.8 1.3.5 2.1a12 12 0 0 0 12.9.5l1.4-1c.3-.2.4-.5.2-.8l-.8-1.6c-1.5-3-1.8-6-1-9.2.4-1.3 1-2.6 1.9-3.6C60 .8 61.5.3 63.4.9c2 .6 3.2 1.8 3.5 3.8.2.9.2 1.8.1 2.7a17 17 0 0 1-2.7 7.2l-1.5 2.2c-.4.6-.3.9.2 1.2a10.5 10.5 0 0 0 14.4-2.3l2.7-3.3 2.3-2.6c.4-.4.9-.8 1.5-.6.4.2.5 1 .1 1.7l-.9 1.5c-1.3 1.6-2.4 3.3-3.9 4.7" clip-rule="evenodd"/>
</svg>