<svg xmlns="http://www.w3.org/2000/svg" version="1.1" xmlns:xlink="http://www.w3.org/1999/xlink" xmlns:svgjs="http://svgjs.com/svgjs" width="512" height="512"><svg width="512" height="512" viewBox="0 0 135.46666 135.46667" version="1.1" id="SvgjsSvg1007" inkscape:version="1.1 (c68e22c387, 2021-05-23)" sodipodi:docname="holly-favicon.svg" xmlns:inkscape="http://www.inkscape.org/namespaces/inkscape" xmlns:sodipodi="http://sodipodi.sourceforge.net/DTD/sodipodi-0.dtd" xmlns="http://www.w3.org/2000/svg" xmlns:svg="http://www.w3.org/2000/svg">
  <sodipodi:namedview id="SvgjsSodipodi:namedview1006" pagecolor="#ffffff" bordercolor="#666666" borderopacity="1.0" inkscape:pageshadow="2" inkscape:pageopacity="0.0" inkscape:pagecheckerboard="0" inkscape:document-units="mm" showgrid="false" units="px" inkscape:zoom="1.1162109" inkscape:cx="112.43395" inkscape:cy="284.44444" inkscape:window-width="2560" inkscape:window-height="1361" inkscape:window-x="-9" inkscape:window-y="-9" inkscape:window-maximized="1" inkscape:current-layer="layer1"></sodipodi:namedview>
  <defs id="SvgjsDefs1005"></defs>
  <g inkscape:label="Layer 1" inkscape:groupmode="layer" id="SvgjsG1004">
    <rect style="fill:#20234b;fill-opacity:1;stroke:#3cb4e5;stroke-width:3.43824;stroke-linecap:round;stroke-linejoin:round;stroke-miterlimit:4;stroke-dasharray:none;stroke-opacity:1;paint-order:fill markers stroke" id="SvgjsRect1003" width="132.02843" height="132.02843" x="1.7191198" y="1.7191198" ry="19.562721"></rect>
    <g aria-label="HG" id="SvgjsG1002" style="font-size:119.062px;line-height:1.25;letter-spacing:5.49804px;stroke-width:4.23333">
      <path d="m 54.627666,98.499276 c -3.214674,-1.309682 -9.167774,-1.547806 -18.811795,-0.59531 -0.59531,1.904992 -1.071558,3.929044 -1.071558,6.072164 -0.119062,2.97655 -0.119062,5.83404 -0.238124,8.69152 -0.119062,0.83344 -0.119062,1.78593 -0.59531,2.50031 -0.238124,0.47624 -0.952496,0.71437 -1.547806,0.71437 -0.357186,0 -0.952496,-0.59531 -1.071558,-0.9525 -0.238124,-1.07156 -0.476248,-2.26218 -0.357186,-3.4528 0.238124,-3.45279 0.476248,-6.90559 0.952496,-10.35839 0.714372,-4.76248 0.833434,-9.52496 0.357186,-14.28744 -0.476248,-3.57186 -0.476248,-7.024658 0,-10.477456 0.119062,-2.143116 0.238124,-4.286232 0.238124,-6.429347 0.119062,-5.000604 0.119062,-9.882146 0.119062,-14.88275 -0.119062,-3.809984 -0.357186,-7.500906 -0.357186,-11.31089 v -5.595914 c 0,-3.095611 0.357186,-6.191223 0.238124,-9.167773 -0.119062,-2.738426 -0.714372,-5.476852 -0.952496,-8.215278 -0.238124,-1.19062 0.119062,-1.904992 1.19062,-2.143116 0.952496,-0.357186 1.78593,0.119062 2.143116,1.071558 0.238124,0.833434 0.476248,1.666868 0.476248,2.500302 0.119062,2.857488 0.238124,5.595914 0.238124,8.33434 v 20.002415 c -0.119062,8.215278 0.238124,16.311494 -0.357186,24.407709 -0.357186,6.191224 0.59531,12.144324 0.238124,17.978362 1.309682,1.428744 2.619363,1.19062 3.809983,1.071558 4.048108,-0.119062 8.215278,-0.59531 12.382448,0.119062 1.309682,0.119062 2.38124,-0.476248 3.57186,-1.78593 l 0.357186,-7.14372 C 55.818286,73.496256 55.4611,61.709119 56.294534,49.921981 c 0.238124,-3.57186 0,-7.262782 -0.119062,-10.953704 -0.119062,-5.000603 -0.238124,-10.120269 -0.476248,-15.120873 0,-1.071558 -0.357186,-2.024054 -0.357186,-2.97655 -0.119062,-1.428744 0.476248,-2.500302 1.428744,-2.619364 0.952496,-0.119062 1.78593,0.357186 2.024054,1.547806 0.238124,1.19062 0.476248,2.500302 0.476248,3.809984 0.119062,4.16717 0.119062,8.453402 0.119062,12.620572 -0.119062,5.953099 0.119062,11.906199 -0.357186,17.859299 -0.59531,9.644022 -0.119062,19.168981 -0.476248,28.813003 -0.119062,2.38124 -0.357186,4.881542 -0.357186,7.381844 -0.119062,7.500906 -0.119062,15.001812 -0.238124,22.621782 0,0.83343 0,1.78593 -0.119062,2.61936 -0.119062,1.07156 -1.19062,1.90499 -2.262178,1.66687 -0.833434,-0.23812 -1.309682,-0.9525 -1.19062,-1.90499 0,-2.5003 0.119062,-4.88154 0.238124,-7.38185 0.238124,-3.21467 0.357186,-6.31028 0,-9.405894 z" style="font-weight:bold;font-family:'Frente H1';-inkscape-font-specification:'Frente H1 Bold';fill:#ffffff;stroke:#ffffff" id="SvgjsPath1001"></path>
      <path d="m 100.24948,58.970693 c -2.619362,-0.714372 -5.119664,-0.952496 -7.85809,-0.59531 -0.714372,0.119062 -1.309682,0.357186 -2.024054,0.357186 -1.071558,0 -2.024054,-1.309682 -2.143116,-2.262178 0,-0.952496 0.714372,-1.666868 1.904992,-2.024054 0.59531,-0.119062 1.19062,-0.119062 1.666868,-0.119062 3.929046,0.119062 7.858092,0.357186 11.66808,0.59531 0.95249,0.714372 1.19062,1.78593 1.07155,2.97655 -0.47624,8.215278 0.11907,16.311493 -0.23812,24.407709 -0.23812,4.643418 -0.23812,9.52496 -0.11906,14.28744 0,4.405296 0.11906,6.072166 -0.47625,10.477456 -0.23812,1.54781 -0.11906,2.61936 -0.83343,3.92905 -1.66687,3.69092 -2.38124,5.47685 -6.786538,6.07216 -2.857488,-0.35719 -4.643418,0.11906 -7.500906,-0.59531 -5.000603,-1.19062 -7.977153,-4.76248 -9.286835,-9.64402 -1.071558,-3.21468 -1.309682,-6.78654 -1.547806,-10.120274 -0.238124,-6.54841 -0.238124,-13.215882 -0.357186,-19.764292 0,-2.857488 0.119062,-6.072161 0.119062,-8.929649 0,-3.333736 0.119062,-6.667472 -0.476248,-10.001208 -0.357186,-1.428744 -0.238124,-2.857488 -0.238124,-4.405294 V 41.468579 c 0,-1.428744 0.238124,-2.738426 0.476248,-4.167169 l 0.952496,-7.024658 c 0.357186,-1.547806 0.833434,-3.333736 1.666868,-4.76248 2.024054,-3.809984 4.881541,-5.595914 9.405897,-5.834038 0.59531,0 1.071558,-0.119062 1.666868,-0.238124 6.191224,-0.119062 11.549014,2.857488 13.096824,8.810588 0.47624,1.428744 0.35718,3.452798 0.35718,5.119666 0,1.19062 -0.83343,2.024054 -1.78593,2.024054 -0.95249,0.119062 -2.38124,-0.833434 -2.5003,-1.78593 -0.11906,-0.952496 -0.11906,-2.024054 0,-3.095612 0,-2.38124 -1.309682,-4.16717 -3.095612,-5.238728 -3.452798,-2.143116 -7.381844,-1.904992 -10.834642,-0.59531 -2.500301,1.19062 -3.809983,3.690922 -4.048107,6.191224 -0.59531,3.929046 -1.071558,7.858091 -1.428744,11.668075 -0.119062,3.809984 -0.119062,7.619968 -0.238124,11.31089 -0.119062,0.476248 -0.119062,0.952496 0,1.428744 0.714372,4.405294 0.357186,9.167774 0.476248,13.811192 0,4.881541 0.357186,9.763083 0.59531,14.644625 v 7.024658 c 0.119062,3.452798 0.119062,6.905596 0.357186,10.358394 0.238124,4.04811 1.78593,7.61997 5.119665,10.00121 0.714372,0.59531 1.547806,0.95249 2.143116,1.07156 2.738426,0.59531 3.690922,0.95249 7.262782,0.95249 1.071558,0.35719 2.500302,-2.61936 2.857488,-3.4528 0.476248,-1.07155 0.59531,-2.02405 0.59531,-3.21467 0.595314,-3.92905 0.238124,-5.23873 0.357184,-9.286836 0.83344,-14.644626 0.59531,-23.693338 0.23813,-36.432971 0.11906,-0.59531 -0.11907,-1.071558 -0.23813,-1.78593 z" style="font-weight:bold;font-family:'Frente H1';-inkscape-font-specification:'Frente H1 Bold';fill:#ffffff;stroke:#ffffff" id="SvgjsPath1000"></path>
    </g>
  </g>
</svg><style>@media (prefers-color-scheme: light) { :root { filter: none; } }
</style></svg>