<?xml version="1.0" standalone="no"?>
<!DOCTYPE svg PUBLIC "-//W3C//DTD SVG 20010904//EN"
 "http://www.w3.org/TR/2001/REC-SVG-20010904/DTD/svg10.dtd">
<svg version="1.0" xmlns="http://www.w3.org/2000/svg"
 width="790.000000pt" height="790.000000pt" viewBox="0 0 790.000000 790.000000"
 preserveAspectRatio="xMidYMid meet">
<metadata>
Created by potrace 1.14, written by Peter Selinger 2001-2017
</metadata>
<g transform="translate(0.000000,790.000000) scale(0.100000,-0.100000)"
fill="#000000" stroke="none">
<path d="M0 3950 l0 -3950 3950 0 3950 0 0 3950 0 3950 -1735 0 -1734 0 -5
-32 c-3 -18 -24 -222 -46 -453 -49 -519 -44 -483 -75 -477 -38 7 -31 -21 9
-41 105 -50 166 -254 166 -559 0 -156 -11 -207 -23 -106 -7 58 -47 110 -103
134 -40 17 -102 3 -129 -28 l-20 -24 -31 33 c-51 54 -129 42 -188 -27 l-26
-31 -23 26 c-31 37 -109 41 -151 8 l-28 -23 -27 29 c-40 43 -87 49 -153 19
-49 -21 -58 -22 -108 -12 -30 7 -56 13 -57 13 0 1 5 26 12 56 10 45 10 57 -1
66 -16 13 -27 -10 -38 -78 -7 -37 -11 -42 -44 -50 -21 -5 -38 -16 -40 -25 -3
-14 6 -15 62 -11 53 5 82 1 152 -21 98 -31 134 -59 134 -106 0 -28 -24 -90
-35 -90 -20 0 -402 144 -417 156 -24 22 -23 34 12 215 16 85 30 155 30 156 0
1 90 71 200 154 110 84 200 156 200 160 0 16 -21 20 -36 8 -9 -7 -18 -8 -23
-3 -4 5 -15 187 -25 404 -9 217 -19 432 -23 478 l-6 82 -1763 0 -1764 0 0
-3950z m5597 3045 c23 -14 43 -29 43 -33 0 -4 -46 -46 -102 -92 -501 -412
-770 -630 -776 -630 -4 0 169 176 383 390 214 215 394 390 399 390 5 0 29 -11
53 -25z m-3107 -362 c328 -330 486 -495 440 -457 -14 11 -215 177 -447 368
-233 191 -423 351 -423 356 0 12 70 59 90 59 8 1 161 -146 340 -326z m2468
214 c7 -6 11 -16 8 -23 -11 -27 -298 -505 -302 -502 -7 7 175 541 187 549 13
7 88 -9 107 -24z m-2011 -322 c51 -153 87 -273 79 -265 -21 23 -308 511 -303
516 9 9 93 32 111 31 16 -2 35 -50 113 -282z m1227 -234 l36 -49 -18 -177
c-18 -174 -19 -177 -48 -200 -16 -13 -44 -32 -61 -42 -32 -17 -34 -17 -78 5
-41 20 -45 25 -45 58 0 21 12 98 26 172 20 105 23 141 15 159 -18 38 -13 54
25 89 27 27 44 34 74 34 34 0 42 -5 74 -49z m204 12 l41 -38 7 -151 7 -150
-44 -38 c-45 -39 -59 -41 -120 -18 -24 10 -26 16 -32 89 -3 43 -4 127 -2 187
3 92 7 112 24 132 31 36 70 31 119 -13z m-696 18 c18 -7 29 -24 42 -68 l18
-58 -86 -178 c-93 -194 -88 -189 -200 -219 -45 -12 -46 -12 -81 22 -19 19 -35
39 -35 46 0 6 24 64 54 127 l55 116 73 -25 c95 -32 117 -29 146 21 42 73 16
154 -60 186 -28 12 -29 13 -12 26 21 15 53 17 86 4z m253 -66 c19 -30 35 -60
35 -67 1 -30 -64 -364 -73 -376 -5 -6 -36 -28 -68 -48 l-59 -35 -53 30 c-28
17 -65 42 -80 55 l-29 23 41 79 c33 62 40 72 35 44 -3 -19 -8 -43 -10 -53 -5
-15 20 -36 31 -26 2 2 13 60 25 129 12 69 29 138 37 153 11 23 12 35 3 60 -10
30 -8 34 22 59 23 19 45 28 71 28 34 0 40 -4 72 -55z m-578 -112 c29 -9 53
-20 53 -25 0 -5 -18 -44 -40 -88 -39 -77 -42 -80 -75 -80 l-35 0 0 50 c0 28
-4 50 -9 50 -13 0 -38 -42 -50 -86 -16 -55 -31 -71 -97 -103 -135 -66 -375
-247 -545 -412 -153 -149 -288 -380 -387 -662 -87 -246 -103 -345 -103 -642 0
-249 9 -385 25 -385 6 0 27 -10 45 -23 l33 -23 97 96 c655 647 2214 743 3064
188 58 -38 132 -100 198 -167 l105 -106 41 22 40 23 6 136 c17 339 5 534 -43
705 -91 328 -241 624 -406 799 -155 164 -410 364 -561 439 -69 34 -86 48 -103
81 -11 21 -20 46 -20 54 0 8 -11 28 -25 43 l-24 28 -1 -52 0 -53 -35 0 c-33 0
-35 2 -35 33 0 17 -3 62 -7 100 l-6 67 42 0 c39 0 41 -1 41 -31 0 -21 9 -38
29 -54 15 -14 34 -39 41 -57 32 -89 38 -95 97 -122 192 -89 555 -392 685 -573
174 -243 329 -639 358 -915 11 -106 12 -303 1 -493 l-7 -130 33 -31 c24 -23
33 -40 33 -65 1 -32 1 -33 15 -15 19 25 19 69 -1 135 -11 37 -12 57 -5 64 12
12 23 -12 41 -93 16 -73 4 -118 -39 -147 -18 -13 -46 -39 -61 -59 -27 -36 -27
-39 -14 -88 18 -67 17 -195 -1 -275 -9 -35 -31 -97 -50 -137 -29 -60 -35 -85
-35 -137 0 -34 -7 -116 -15 -181 -10 -76 -15 -174 -13 -276 3 -148 2 -160 -18
-187 -29 -38 -61 -42 -74 -8 -19 51 -6 221 39 495 12 69 21 128 21 132 0 4
-37 -29 -83 -75 -46 -45 -106 -98 -135 -117 -44 -30 -52 -40 -52 -68 l0 -33
47 33 c26 17 76 56 110 85 35 30 63 52 63 50 0 -10 -131 -588 -230 -1012 -203
-876 -207 -891 -270 -985 -21 -30 -49 -78 -63 -105 -14 -28 -53 -77 -87 -110
-34 -33 -86 -84 -116 -113 -30 -29 -62 -56 -72 -60 -9 -4 -55 -28 -102 -54
-138 -76 -242 -110 -433 -143 -146 -25 -493 -20 -627 9 -156 34 -346 110 -460
184 -70 46 -270 247 -270 272 0 4 -12 25 -27 46 -15 21 -39 62 -53 89 -48 89
-65 120 -71 125 -3 3 -13 37 -23 75 -9 39 -26 104 -36 145 -10 41 -40 170 -65
285 -25 116 -93 410 -151 655 -77 330 -103 426 -99 370 4 -41 13 -115 20 -165
12 -77 44 -342 61 -510 7 -69 -15 -139 -45 -143 -26 -4 -56 20 -79 63 -13 25
-16 73 -17 280 -2 177 -7 286 -20 375 -11 77 -18 200 -20 322 l-2 198 -42 59
c-85 121 -121 235 -121 377 0 64 6 112 20 155 16 54 17 66 6 84 -24 36 -62 73
-83 79 -44 14 -55 100 -25 193 12 37 21 50 29 45 10 -6 9 -19 -2 -56 -20 -65
-19 -130 1 -150 21 -22 27 -20 21 5 -8 29 11 77 33 84 18 6 18 20 13 283 -6
316 2 427 46 589 80 295 202 550 356 748 121 154 425 404 614 504 89 48 91 50
135 154 9 20 27 43 41 49 20 9 25 18 25 50 0 45 12 48 97 21z"/>
<path d="M3615 4279 c-713 -72 -1286 -386 -1406 -769 -38 -122 -24 -272 37
-392 27 -53 34 -57 51 -28 11 16 8 29 -17 82 -33 69 -35 95 -19 184 76 411
665 747 1430 815 165 14 523 6 667 -15 340 -51 635 -152 846 -289 197 -129
357 -330 356 -450 0 -17 -6 -60 -14 -95 -12 -59 -12 -64 6 -73 11 -6 22 -8 25
-6 24 25 30 206 9 282 -99 359 -564 640 -1228 741 -122 19 -605 27 -743 13z"/>
<path d="M2077 3694 c-3 -20 -13 -44 -22 -54 -12 -13 -13 -23 -6 -43 11 -28
33 -46 38 -30 2 6 20 37 39 69 38 63 35 76 -17 89 -24 6 -27 3 -32 -31z"/>
<path d="M5666 3717 c-16 -12 -15 -18 22 -89 l39 -76 17 29 c16 27 16 30 -4
68 -11 22 -20 49 -20 61 0 23 -27 27 -54 7z"/>
<path d="M5750 3707 c0 -32 9 -57 21 -57 15 0 10 57 -6 70 -13 11 -15 8 -15
-13z"/>
<path d="M2024 3695 c-4 -14 -3 -29 0 -33 9 -8 26 18 26 41 0 26 -19 20 -26
-8z"/>
<path d="M5447 3101 c-37 -57 -109 -131 -191 -198 -39 -32 -39 -33 -22 -52
l19 -20 30 21 c109 78 275 280 245 299 -27 17 -44 7 -81 -50z"/>
<path d="M2374 2979 c-17 -19 -17 -20 3 -41 19 -18 23 -19 41 -7 20 14 20 15
-3 41 -23 27 -23 27 -41 7z"/>
<path d="M2514 2848 c-5 -17 0 -27 22 -45 36 -28 40 -29 48 0 4 16 -1 28 -22
44 -34 28 -39 28 -48 1z"/>
<path d="M5055 2774 c-70 -42 -273 -123 -398 -159 -138 -41 -347 -81 -466 -91
-79 -7 -91 -13 -72 -42 6 -11 30 -10 132 2 311 39 579 115 808 230 91 46 93
48 75 67 -21 24 -29 23 -79 -7z"/>
<path d="M2287 2743 c-6 -30 7 -50 55 -85 l28 -19 -6 33 c-4 18 -21 48 -39 66
l-32 34 -6 -29z"/>
<path d="M2680 2761 c0 -5 -3 -16 -6 -25 -4 -10 9 -22 45 -40 60 -31 67 -32
81 -7 9 17 3 23 -52 50 -69 35 -68 35 -68 22z"/>
<path d="M2915 2637 c-15 -21 -14 -22 37 -40 197 -67 528 -127 707 -127 62 0
64 1 47 19 -13 14 -37 21 -94 26 -202 17 -471 71 -624 124 l-58 20 -15 -22z"/>
<path d="M2473 2608 c4 -13 7 -28 7 -34 0 -6 23 -23 52 -39 41 -23 50 -25 45
-11 -4 10 -7 25 -7 34 0 10 -22 29 -52 45 l-51 29 6 -24z"/>
<path d="M5105 2545 c-226 -114 -526 -200 -842 -241 -123 -16 -143 -23 -143
-52 0 -11 13 -13 63 -7 375 40 664 118 961 260 82 39 96 49 96 70 0 13 -3 25
-7 27 -5 2 -62 -24 -128 -57z"/>
<path d="M2660 2495 c0 -21 9 -29 46 -45 57 -25 54 -25 54 5 0 19 -10 29 -40
45 -51 26 -60 25 -60 -5z"/>
<path d="M3800 2498 c0 -33 14 -38 96 -38 85 0 98 6 67 31 -16 14 -163 21
-163 7z"/>
<path d="M2862 2415 c2 -23 11 -31 43 -42 83 -29 309 -82 437 -102 137 -22
357 -42 371 -34 4 2 7 13 7 23 0 16 -10 19 -67 24 -156 14 -331 37 -426 57
-91 19 -303 76 -350 95 -16 6 -18 2 -15 -21z"/>
<path d="M3790 2255 l0 -25 115 0 115 0 0 25 0 25 -115 0 -115 0 0 -25z"/>
<path d="M3870 7280 c0 -171 2 -200 15 -200 13 0 15 29 15 200 0 171 -2 200
-15 200 -13 0 -15 -29 -15 -200z"/>
<path d="M4024 7467 c-2 -7 -3 -96 -2 -197 3 -167 5 -185 21 -188 16 -3 17 11
17 197 0 174 -2 201 -15 201 -9 0 -18 -6 -21 -13z"/>
<path d="M3940 6725 c0 -89 -121 -209 -271 -267 -60 -23 -78 -48 -36 -48 13 0
60 18 106 40 106 51 199 141 224 214 23 66 22 86 -3 86 -15 0 -20 -7 -20 -25z"/>
<path d="M4019 6693 c-29 -74 -1 -184 49 -191 28 -4 28 -1 -4 45 -26 38 -27
53 -12 147 5 31 -21 30 -33 -1z"/>
<path d="M3447 6664 c-4 -4 -7 -32 -7 -63 l0 -55 -43 42 c-36 36 -46 41 -55
29 -10 -11 0 -25 48 -71 33 -32 66 -56 73 -53 8 2 12 30 12 87 0 77 -9 103
-28 84z"/>
<path d="M3985 6454 c-110 -18 -201 -33 -202 -33 -11 -3 0 -31 11 -31 36 0
412 63 420 70 10 10 -1 30 -17 29 -7 -1 -102 -16 -212 -35z"/>
</g>
</svg>
